<svg width="100" height="100" xmlns="http://www.w3.org/2000/svg" xml:space="preserve" enable-background="new 0 0 100 100" version="1.0">

 <g>
  <title>Layer 1</title>
  <rect rx="10" id="svg_2" height="100" width="100" y="0" x="0" fill="#ffffff"/>
  <path style="vector-effect: non-scaling-stroke;" id="svg_1" d="m88.047,78.613l-22.669,-22.669c2.91,-4.623 4.622,-10.077 4.622,-15.944c0,-16.569 -13.431,-30 -30,-30c-16.569,-0.006 -30,13.431 -30,30c0,10.4 5.293,19.56 13.333,24.941l0,-28.274l6.667,0l0,31.584c2.126,0.752 4.349,1.292 6.667,1.546l0,-46.464l6.666,0l0,46.419c2.318,-0.261 4.541,-0.798 6.667,-1.56l0,-38.192l6.667,0l0,36.086l21.953,21.954c2.601,2.611 6.822,2.611 9.427,0.007c2.604,-2.61 2.604,-6.829 0,-9.434z" fill="#000000"/>
 </g>
</svg>